<?xml version="1.0" encoding="UTF-8" standalone="no"?>
<!-- Created with Inkscape (http://www.inkscape.org/) -->

<svg
   xmlns:dc="http://purl.org/dc/elements/1.1/"
   xmlns:cc="http://creativecommons.org/ns#"
   xmlns:rdf="http://www.w3.org/1999/02/22-rdf-syntax-ns#"
   xmlns:svg="http://www.w3.org/2000/svg"
   xmlns="http://www.w3.org/2000/svg"
   xmlns:sodipodi="http://sodipodi.sourceforge.net/DTD/sodipodi-0.dtd"
   xmlns:inkscape="http://www.inkscape.org/namespaces/inkscape"
   width="1920"
   height="1080"
   viewBox="0 0 507.99999 285.75001"
   version="1.1"
   id="svg8"
   inkscape:version="0.92.5 (2060ec1f9f, 2020-04-08)"
   sodipodi:docname="keep calm resia.svg">
  <defs
     id="defs2">
    <style
       id="style4518">
      .cls-1 {
        fill: none;
      }
    </style>
  </defs>
  <sodipodi:namedview
     id="base"
     pagecolor="#ffffff"
     bordercolor="#666666"
     borderopacity="1.0"
     inkscape:pageopacity="0.0"
     inkscape:pageshadow="2"
     inkscape:zoom="0.49497475"
     inkscape:cx="549.35922"
     inkscape:cy="697.82743"
     inkscape:document-units="mm"
     inkscape:current-layer="layer2"
     showgrid="false"
     inkscape:window-width="1920"
     inkscape:window-height="1017"
     inkscape:window-x="1912"
     inkscape:window-y="-8"
     inkscape:window-maximized="1"
     units="px"
     inkscape:snap-page="true"
     inkscape:snap-text-baseline="true" />
  <metadata
     id="metadata5">
    <rdf:RDF>
      <cc:Work
         rdf:about="">
        <dc:format>image/svg+xml</dc:format>
        <dc:type
           rdf:resource="http://purl.org/dc/dcmitype/StillImage" />
        <dc:title></dc:title>
      </cc:Work>
    </rdf:RDF>
  </metadata>
  <g
     inkscape:groupmode="layer"
     id="layer4"
     inkscape:label="color"
     transform="translate(0,-11.249983)"
     sodipodi:insensitive="true">
    <rect
       style="opacity:0.8;fill:#2990ea;fill-opacity:1;stroke:none;stroke-width:0.5;stroke-linecap:round;stroke-linejoin:round;stroke-miterlimit:4;stroke-dasharray:none;paint-order:markers fill stroke"
       id="rect837"
       width="508"
       height="285.75"
       x="0"
       y="11.249983" />
    <flowRoot
       xml:space="preserve"
       id="flowRoot839"
       style="font-style:normal;font-variant:normal;font-weight:normal;font-stretch:normal;font-size:13.33333302px;line-height:1.25;font-family:sans-serif;-inkscape-font-specification:'sans-serif, Normal';font-variant-ligatures:normal;font-variant-caps:normal;font-variant-numeric:normal;font-feature-settings:normal;text-align:start;letter-spacing:0px;word-spacing:0px;writing-mode:lr-tb;text-anchor:start;fill:#000000;fill-opacity:1;stroke:none"
       transform="matrix(0.26458333,0,0,0.26458333,0,11.249983)"><flowRegion
         id="flowRegion841"><rect
           id="rect843"
           width="274.76151"
           height="286.88333"
           x="864.69055"
           y="469.86786" /></flowRegion><flowPara
         id="flowPara845"></flowPara></flowRoot>  </g>
  <g
     inkscape:label="Logo"
     inkscape:groupmode="layer"
     id="layer1"
     transform="translate(0,-11.249983)"
     sodipodi:insensitive="true">
    <g
       id="g4579"
       transform="matrix(0.18898809,0,0,0.17991666,213.36756,11.249983)"
       style="stroke-width:1.43486011">
      <rect
         id="rect4522"
         height="500"
         width="430"
         y="0"
         class="cls-1"
         x="0"
         style="fill:none;stroke-width:1.43486011" />
      <g
         id="g4554"
         style="stroke-width:1.43486011">
        <path
           id="path4524"
           d="M 329.5,139.6 C 286.2,79.4 202.4,65.6 142.2,108.9 99.1,139.9 78.3,193.3 89.1,245.3 L 224,185.4 h -73.8 c 18,-38.7 64,-55.5 102.7,-37.5 8.2,3.8 15.6,9 22,15.3 z"
           inkscape:connector-curvature="0"
           style="stroke-width:1.43486011" />
        <polygon
           id="polygon4526"
           points="357,133 222.2,270.4 50.8,270.4 "
           style="stroke-width:1.43486011" />
        <path
           id="path4528"
           d="m 219.9,295.1 c -18.1,0 -35.7,-6.2 -49.8,-17.7 h -72 c 34.6,67.4 117.3,94.1 184.7,59.5 26.8,-13.8 48.4,-36 61.4,-63.2 h -70 c -14.7,13.8 -34.1,21.4 -54.3,21.4 z"
           inkscape:connector-curvature="0"
           style="stroke-width:1.43486011" />
        <g
           id="g4552"
           style="stroke-width:1.43486011">
          <path
             id="path4530"
             d="M 79.2,401.4 H 66.9 v 9.6 h 13.7 v 4.9 H 60.9 v -32.5 h 19 v 4.9 h -13 v 8.4 h 12.3 c 0,0 0,4.7 0,4.7 z"
             inkscape:connector-curvature="0"
             style="stroke-width:1.43486011" />
          <path
             id="path4532"
             d="m 91.7,383.3 v 18.9 c 0,6.4 2.7,9.3 6.7,9.3 4.3,0 6.8,-3 6.8,-9.3 v -18.9 h 5.9 v 18.6 c 0,10 -5.2,14.5 -13,14.5 -7.8,0 -12.4,-4.2 -12.4,-14.4 v -18.6 h 6 z"
             inkscape:connector-curvature="0"
             style="stroke-width:1.43486011" />
          <path
             id="path4534"
             d="m 118,383.8 c 3,-0.5 6,-0.7 9,-0.7 4.7,0 7.8,0.8 10,2.6 1.9,1.6 2.9,4.1 2.8,6.6 0,3.7 -2.4,7 -5.9,8.1 v 0.2 c 2.4,0.9 3.8,3.1 4.5,6.3 0.7,3.1 1.5,6.1 2.6,9.1 h -6.1 c -1,-2.5 -1.7,-5 -2.2,-7.7 -1,-4.3 -2.5,-5.6 -5.8,-5.7 h -3 V 416 H 118 Z m 5.9,14.3 h 3.5 c 4,0 6.5,-2.1 6.5,-5.4 0,-3.5 -2.5,-5.2 -6.3,-5.2 -1.2,0 -2.5,0.1 -3.7,0.3 0,0 0,10.3 0,10.3 z"
             inkscape:connector-curvature="0"
             style="stroke-width:1.43486011" />
          <path
             id="path4536"
             d="m 158.8,416.3 c -9.2,0 -15,-7 -15,-16.5 0,-10 6.3,-17 15.5,-17 9.2,0 15,7.2 15,16.4 0,10.9 -6.6,17.1 -15.5,17.1 z m 0.2,-4.7 c 5.7,0 9,-5.3 9,-12.1 0,-6.1 -3,-11.9 -9,-11.9 -6,0 -9,5.6 -9,12.1 0,6.5 3.3,11.9 9,11.9 z"
             inkscape:connector-curvature="0"
             style="stroke-width:1.43486011" />
          <path
             id="path4538"
             d="m 202.7,414.8 c -2.7,1 -5.6,1.5 -8.5,1.4 -10.3,0 -16.6,-6.5 -16.6,-16.4 0,-10.7 7.5,-17.1 17.4,-17.1 2.7,-0.1 5.4,0.4 7.9,1.4 l -1.2,4.7 c -2,-0.8 -4.2,-1.3 -6.4,-1.2 -6.6,0 -11.4,4.2 -11.4,12 0,7.1 4.1,11.7 11.3,11.7 2.2,0 4.4,-0.4 6.5,-1.2 z"
             inkscape:connector-curvature="0"
             style="stroke-width:1.43486011" />
          <path
             id="path4540"
             d="m 219.9,416.3 c -9.2,0 -15,-7 -15,-16.5 0,-10 6.3,-17 15.5,-17 9.2,0 15.1,7.2 15.1,16.4 0,10.9 -6.6,17.1 -15.6,17.1 z m 0.3,-4.7 c 5.7,0 9,-5.3 9,-12.1 0,-6.1 -3,-11.9 -9,-11.9 -6,0 -9,5.6 -9,12.1 0,6.5 3.3,11.9 9,11.9 z"
             inkscape:connector-curvature="0"
             style="stroke-width:1.43486011" />
          <path
             id="path4542"
             d="m 240.5,415.8 v -32.5 h 6.8 l 8.4,13.9 c 2.1,3.5 3.9,7.2 5.5,10.9 h 0.1 c -0.4,-4.5 -0.6,-9 -0.5,-13.5 v -11.3 h 5.5 v 32.5 h -6.2 l -8.5,-14.3 c -2.1,-3.6 -4.1,-7.3 -5.8,-11.2 h -0.2 c 0.2,4.2 0.3,8.5 0.3,13.8 v 11.6 z"
             inkscape:connector-curvature="0"
             style="stroke-width:1.43486011" />
          <path
             id="path4544"
             d="m 279.4,388.3 h -9.3 v -4.9 h 24.6 v 4.9 h -9.4 v 27.6 h -5.9 z"
             inkscape:connector-curvature="0"
             style="stroke-width:1.43486011" />
          <path
             id="path4546"
             d="m 298.5,383.8 c 3,-0.5 6,-0.7 9,-0.7 4.7,0 7.8,0.8 10,2.6 1.9,1.6 2.9,4.1 2.8,6.6 0,3.7 -2.4,7 -5.9,8.1 v 0.2 c 2.4,0.9 3.8,3.1 4.5,6.3 0.7,3.1 1.5,6.1 2.5,9.1 h -6.1 c -1,-2.5 -1.7,-5 -2.2,-7.7 -1,-4.3 -2.5,-5.6 -5.8,-5.7 h -3 V 416 h -5.9 z m 5.9,14.3 h 3.5 c 4,0 6.5,-2.1 6.5,-5.4 0,-3.5 -2.5,-5.2 -6.3,-5.2 -1.2,0 -2.5,0.1 -3.7,0.3 z"
             inkscape:connector-curvature="0"
             style="stroke-width:1.43486011" />
          <path
             id="path4548"
             d="m 339.3,416.3 c -9.2,0 -15,-7 -15,-16.5 0,-10 6.3,-17 15.5,-17 9.2,0 15.1,7.2 15.1,16.4 -0.1,10.9 -6.7,17.1 -15.6,17.1 z m 0.2,-4.7 c 5.7,0 9,-5.3 9,-12.1 0,-6.1 -3,-11.9 -9,-11.9 -6,0 -9,5.6 -9,12.1 0,6.5 3.3,11.9 9,11.9 z"
             inkscape:connector-curvature="0"
             style="stroke-width:1.43486011" />
          <path
             id="path4550"
             d="m 359.9,383.3 h 5.9 v 27.5 h 13.4 v 4.9 h -19.3 z"
             inkscape:connector-curvature="0"
             style="stroke-width:1.43486011" />
        </g>
      </g>
    </g>
  </g>
  <g
     inkscape:groupmode="layer"
     id="layer2"
     inkscape:label="Text"
     transform="translate(0,-11.249983)">
    <text
       xml:space="preserve"
       style="font-style:normal;font-variant:normal;font-weight:500;font-stretch:normal;font-size:17.63888931px;line-height:1.25;font-family:'Keep Calm';-inkscape-font-specification:'Keep Calm, Medium';font-variant-ligatures:normal;font-variant-caps:normal;font-variant-numeric:normal;font-feature-settings:normal;text-align:start;letter-spacing:1.56104171px;word-spacing:0px;writing-mode:lr-tb;text-anchor:start;fill:#000000;fill-opacity:1;stroke:none;stroke-width:0.26458332"
       x="254.23788"
       y="234.38046"
       id="text853"><tspan
         sodipodi:role="line"
         id="tspan880"
         style="font-style:normal;font-variant:normal;font-weight:500;font-stretch:normal;font-size:24.69444466px;font-family:'Keep Calm';-inkscape-font-specification:'Keep Calm, Medium';font-variant-ligatures:normal;font-variant-caps:normal;font-variant-numeric:normal;font-feature-settings:normal;text-align:center;writing-mode:lr-tb;text-anchor:middle"
         x="255.0184"
         y="234.38046">FILE</tspan><tspan
         sodipodi:role="line"
         id="tspan882"
         style="font-style:normal;font-variant:normal;font-weight:500;font-stretch:normal;font-size:24.69444466px;font-family:'Keep Calm';-inkscape-font-specification:'Keep Calm, Medium';font-variant-ligatures:normal;font-variant-caps:normal;font-variant-numeric:normal;font-feature-settings:normal;text-align:center;writing-mode:lr-tb;text-anchor:middle"
         x="255.0184"
         y="265.24854">RESIA</tspan></text>
    <text
       xml:space="preserve"
       style="font-style:normal;font-variant:normal;font-weight:500;font-stretch:normal;font-size:17.63888931px;line-height:1.25;font-family:'Keep Calm';-inkscape-font-specification:'Keep Calm, Medium';font-variant-ligatures:normal;font-variant-caps:normal;font-variant-numeric:normal;font-feature-settings:normal;text-align:start;letter-spacing:1.56104171px;word-spacing:0px;writing-mode:lr-tb;text-anchor:start;fill:#000000;fill-opacity:1;stroke:none;stroke-width:0.26458332"
       x="253.60939"
       y="130.68188"
       id="text853-8"><tspan
         sodipodi:role="line"
         id="tspan855-1"
         style="font-style:normal;font-variant:normal;font-weight:500;font-stretch:normal;font-size:24.69444466px;font-family:'Keep Calm';-inkscape-font-specification:'Keep Calm, Medium';font-variant-ligatures:normal;font-variant-caps:normal;font-variant-numeric:normal;font-feature-settings:normal;text-align:center;writing-mode:lr-tb;text-anchor:middle;stroke-width:0.26458332"
         x="254.38991"
         y="130.68188">KEEP</tspan><tspan
         sodipodi:role="line"
         id="tspan857-3"
         style="font-style:normal;font-variant:normal;font-weight:500;font-stretch:normal;font-size:24.69444466px;font-family:'Keep Calm';-inkscape-font-specification:'Keep Calm, Medium';font-variant-ligatures:normal;font-variant-caps:normal;font-variant-numeric:normal;font-feature-settings:normal;text-align:center;writing-mode:lr-tb;text-anchor:middle;stroke-width:0.26458332"
         x="254.38991"
         y="161.54994">CALM</tspan></text>
    <text
       id="text888"
       y="193.76088"
       x="234.78474"
       style="font-style:normal;font-variant:normal;font-weight:500;font-stretch:normal;font-size:17.63888931px;line-height:1.25;font-family:'Keep Calm';-inkscape-font-specification:'Keep Calm, Medium';font-variant-ligatures:normal;font-variant-caps:normal;font-variant-numeric:normal;font-feature-settings:normal;text-align:start;letter-spacing:1.56104171px;word-spacing:0px;writing-mode:lr-tb;text-anchor:start;fill:#000000;fill-opacity:1;stroke:none;stroke-width:0.26458332"
       xml:space="preserve"><tspan
         sodipodi:role="line"
         id="tspan890"
         style="font-style:normal;font-variant:normal;font-weight:500;font-stretch:normal;font-size:14.11111069px;font-family:'Keep Calm';-inkscape-font-specification:'Keep Calm, Medium';font-variant-ligatures:normal;font-variant-caps:normal;font-variant-numeric:normal;font-feature-settings:normal;text-align:start;writing-mode:lr-tb;text-anchor:start"
         x="234.78474"
         y="193.76088">AND</tspan></text>
  </g>
</svg>
